<svg xmlns="http://www.w3.org/2000/svg" width="140" height="39" fill="none" viewBox="0 0 140 39">
    <path fill="#EEF6FB" d="M0 0H102.2V33.831H0z"/>
    <path fill="#55CBF5" d="M102.197 0h37.8v33.831h-27.533L102.197 39V0z"/>
    <path fill="#fff" d="M113.772 13.228c-.388 0-.728-.14-1.019-.421-.279-.293-.419-.635-.419-1.026s.14-.733.419-1.027c.291-.293.631-.44 1.019-.44.4 0 .74.147 1.019.44.291.294.437.636.437 1.027 0 .39-.146.733-.437 1.026-.279.28-.619.421-1.019.421zm-1.165 10.263v-9.163h2.348v9.163h-2.348zM127.933 21.823c-1.286 1.283-2.852 1.924-4.696 1.924-1.844 0-3.409-.641-4.696-1.924-1.274-1.295-1.911-2.877-1.911-4.746 0-1.87.637-3.445 1.911-4.728 1.287-1.295 2.852-1.943 4.696-1.943 1.844 0 3.41.648 4.696 1.943 1.286 1.283 1.929 2.859 1.929 4.728 0 1.869-.643 3.451-1.929 4.746zm-7.626-1.723c.789.782 1.765 1.173 2.93 1.173 1.165 0 2.142-.39 2.93-1.173.789-.794 1.183-1.802 1.183-3.023 0-1.222-.394-2.23-1.183-3.024-.788-.794-1.765-1.191-2.93-1.191-1.165 0-2.141.397-2.93 1.191-.789.794-1.183 1.802-1.183 3.024 0 1.221.394 2.23 1.183 3.023z"/>
    <path fill="#05182B" d="M10.264 10.3H16.7c.915 0 1.787.344 2.455.971.7.656 1.1 1.545 1.133 2.507.03.961-.311 1.876-.966 2.576l-.36.385.36.385c1.354 1.447 1.28 3.728-.165 5.082-.669.627-1.54.97-2.455.97h-3.786l-2.652 2.672V10.3zm2.921 10.156H16.7c.223 0 .434-.083.596-.235.217-.204.27-.444.275-.61.005-.165-.03-.407-.235-.625l-2.1-2.248 2.1-2.247c.205-.218.242-.462.235-.626-.005-.165-.058-.405-.276-.608-.161-.151-.374-.235-.597-.235h-3.513v7.434zm11.867 2.72v-9.561H22.11v9.564h2.943v-.002zm-.027-10.412v-2.422h-2.89v2.422h2.89zm8.437 10.413V20.66h-1.068c-.883 0-1.431-.545-1.431-1.423v-3.475h2.445v-2.148h-2.532v-2.95h-.335l-4.37 4.655v.443h1.845v4.071c0 2.093 1.24 3.343 3.32 3.343h2.126zm45.951-10.883V9.872h-2.89v2.422h2.89zM68.528 23.52c-2.962 0-5.031-2.107-5.031-5.122 0-3.01 2.069-5.112 5.03-5.112.853 0 1.671.228 2.366.66l.403.25V9.873H74.2v13.305h-2.132l-.4-.915-.27.228c-.798.673-1.792 1.03-2.87 1.03zm.464-7.696c-1.436 0-2.52 1.105-2.52 2.574 0 1.468 1.084 2.574 2.52 2.574s2.52-1.106 2.52-2.574c0-1.469-1.084-2.574-2.52-2.574zm10.447 7.354v-9.562h-2.944v9.564h2.944v-.002zm-29.123 0v-6.065c0-2.27-1.339-3.795-3.33-3.795-1.136 0-2.19.504-2.889 1.385l-.224.283-.2-.3c-.586-.87-1.56-1.37-2.672-1.37-1.041 0-2.043.47-2.746 1.291l-.269.314-.595-1.305h-2.008v9.564h2.943v-5.271c0-1.394.628-2.193 1.72-2.193.514 0 1.375.237 1.375 1.827v5.635h2.853v-5.27c0-1.812.93-2.192 1.707-2.192.633 0 1.388.317 1.388 1.827v5.635h2.947zm35.857.332c-2.91 0-5.021-2.155-5.021-5.122 0-2.995 2.064-5.085 5.02-5.085 1.095 0 2.102.354 2.912 1.023l.265.22.427-.938h2.154v9.56h-2.244l-.366-.878-.273.222c-.804.652-1.797.998-2.874.998zm.463-7.673c-1.436 0-2.52 1.1-2.52 2.557 0 1.464 1.084 2.566 2.52 2.566s2.52-1.102 2.52-2.566c0-1.458-1.083-2.557-2.52-2.557zM57.15 23.51c-2.971 0-5.21-2.2-5.21-5.119 0-2.957 2.191-5.104 5.21-5.104 3.018 0 5.22 2.097 5.233 4.988v.03c0 .207-.014.423-.04.655h-7.572l.061.315c.249 1.27 1.072 1.97 2.316 1.97.832 0 1.565-.353 1.968-.946h2.939c-.76 1.981-2.632 3.211-4.905 3.211zm-.002-8.029c-1.135 0-1.935.62-2.25 1.745l-.093.335h4.778l-.103-.34c-.34-1.123-1.167-1.74-2.332-1.74z"/>
</svg>
